<svg width="40" height="40" viewBox="0 0 40 40" fill="none" xmlns="http://www.w3.org/2000/svg">
<g filter="url(#filter0_d_30_2199)">
<path d="M19.5 35.75C17.3654 35.7521 15.2514 35.3332 13.2789 34.5174C11.3064 33.7015 9.51413 32.5046 8.00476 30.9952C6.49538 29.4858 5.29849 27.6936 4.48261 25.7211C3.66673 23.7486 3.24787 21.6345 3.25001 19.5V19.175C3.31502 15.989 4.31486 12.8924 6.12526 10.27C7.93566 7.6476 10.4768 5.61504 13.4328 4.42494C16.3889 3.23483 19.6295 2.93966 22.7519 3.57611C25.8743 4.21256 28.7409 5.75256 30.9953 8.00472C33.2698 10.2774 34.819 13.1737 35.4468 16.3271C36.0746 19.4806 35.7528 22.7494 34.5221 25.7199C33.2913 28.6903 31.2071 31.2289 28.533 33.0144C25.859 34.7998 22.7153 35.7519 19.5 35.75Z" fill="url(#paint0_linear_30_2199)"/>
<path d="M19.5 35.75C17.3654 35.7521 15.2514 35.3332 13.2789 34.5174C11.3064 33.7015 9.51413 32.5046 8.00476 30.9952C6.49538 29.4858 5.29849 27.6936 4.48261 25.7211C3.66673 23.7486 3.24787 21.6345 3.25001 19.5V19.175C3.31502 15.989 4.31486 12.8924 6.12526 10.27C7.93566 7.6476 10.4768 5.61504 13.4328 4.42494C16.3889 3.23483 19.6295 2.93966 22.7519 3.57611C25.8743 4.21256 28.7409 5.75256 30.9953 8.00472C33.2698 10.2774 34.819 13.1737 35.4468 16.3271C36.0746 19.4806 35.7528 22.7494 34.5221 25.7199C33.2913 28.6903 31.2071 31.2289 28.533 33.0144C25.859 34.7998 22.7153 35.7519 19.5 35.75Z" stroke="#F8AC3C" stroke-width="3"/>
</g>
<path d="M24.1925 13.75L20 17.9425L15.8075 13.75L14.75 14.8075L18.9425 19L14.75 23.1925L15.8075 24.25L20 20.0575L24.1925 24.25L25.25 23.1925L21.0575 19L25.25 14.8075L24.1925 13.75Z" fill="#1A1731"/>
<defs>
<filter id="filter0_d_30_2199" x="1.75" y="1.74854" width="37.5095" height="37.5015" filterUnits="userSpaceOnUse" color-interpolation-filters="sRGB">
<feFlood flood-opacity="0" result="BackgroundImageFix"/>
<feColorMatrix in="SourceAlpha" type="matrix" values="0 0 0 0 0 0 0 0 0 0 0 0 0 0 0 0 0 0 127 0" result="hardAlpha"/>
<feOffset dx="2" dy="2"/>
<feComposite in2="hardAlpha" operator="out"/>
<feColorMatrix type="matrix" values="0 0 0 0 0.933333 0 0 0 0 0.545098 0 0 0 0 0.32549 0 0 0 1 0"/>
<feBlend mode="normal" in2="BackgroundImageFix" result="effect1_dropShadow_30_2199"/>
<feBlend mode="normal" in="SourceGraphic" in2="effect1_dropShadow_30_2199" result="shape"/>
</filter>
<linearGradient id="paint0_linear_30_2199" x1="36.0444" y1="41.4961" x2="-4.47976" y2="20.8809" gradientUnits="userSpaceOnUse">
<stop stop-color="#D69599"/>
<stop offset="0.375504" stop-color="#F1AAEE"/>
<stop offset="1" stop-color="white"/>
</linearGradient>
</defs>
</svg>
