<svg width="30" height="21" viewBox="0 0 30 21" fill="none" xmlns="http://www.w3.org/2000/svg">
<path d="M25.5678 2.78252C22.0482 0.153135 18.6804 0.222149 18.6804 0.222149L18.3353 0.615522C22.5175 1.87156 24.4567 3.7142 24.4567 3.7142C17.6383 0.34637 11.6963 0.367074 4.63625 3.7142C4.63625 3.7142 6.65142 1.77494 11.082 0.518904L10.8336 0.222149C10.8336 0.222149 7.48648 0.146234 3.94612 2.78252C3.94612 2.78252 0.405762 9.15241 0.405762 16.9923C0.405762 16.9923 2.46925 20.5326 7.90746 20.7052C7.90746 20.7052 8.81843 19.6217 9.55686 18.69C6.43058 17.7583 5.25046 15.8121 5.25046 15.8121C10.8267 19.3732 18.5699 19.6424 24.4291 15.8121C24.4291 15.8121 23.2007 17.8066 19.9778 18.7107C20.7162 19.6217 21.5996 20.6776 21.5996 20.6776C27.0309 20.505 29.1013 16.9647 29.1013 16.9923C29.1082 9.14551 25.5678 2.78252 25.5678 2.78252ZM10.1711 14.7079C6.92748 14.7632 6.89987 9.23522 10.1711 9.29734C13.4492 9.22832 13.4285 14.7632 10.1711 14.7079ZM19.1497 14.7079C15.906 14.7632 15.8784 9.23522 19.1497 9.29734C22.3864 9.23522 22.414 14.7701 19.1497 14.7079Z" fill="white"/>
</svg>
