<svg width="12" height="12" viewBox="0 0 12 12" fill="none" xmlns="http://www.w3.org/2000/svg">
<path d="M2.72412 11.9999V3.90358H0.151767V11.9999H2.72412ZM1.43828 2.7975C2.3353 2.7975 2.89365 2.1758 2.89365 1.39888C2.87694 0.604444 2.33533 0 1.4553 0C0.5754 0 0 0.604456 0 1.39888C0 2.17584 0.558217 2.7975 1.42148 2.7975H1.43819H1.43828ZM4.14791 11.9999H6.72026V7.4785C6.72026 7.23652 6.73697 6.9948 6.8049 6.82182C6.99086 6.33836 7.41411 5.83763 8.12471 5.83763C9.05553 5.83763 9.42791 6.58008 9.42791 7.66847V11.9998H12.0001V7.35747C12.0001 4.87061 10.731 3.7135 9.03859 3.7135C7.65091 3.7135 7.04163 4.52495 6.70314 5.07763H6.72031V3.90341H4.14796C4.18172 4.66312 4.14796 11.9997 4.14796 11.9997L4.14791 11.9999Z" fill="white"/>
</svg>
