<svg width="15" height="14" viewBox="0 0 15 14" fill="none" xmlns="http://www.w3.org/2000/svg">
<path d="M7.49798 4.66567C6.12083 4.66567 4.99697 5.71463 4.99697 7C4.99697 8.28537 6.12083 9.33433 7.49798 9.33433C8.87514 9.33433 9.999 8.28537 9.999 7C9.999 5.71463 8.87514 4.66567 7.49798 4.66567ZM14.9992 7C14.9992 6.03335 15.0085 5.07545 14.9504 4.11055C14.8922 2.98979 14.6183 1.99512 13.7402 1.17556C12.8603 0.35426 11.7964 0.100338 10.5956 0.0460516C9.55996 -0.00823506 8.53366 0.000520879 7.49986 0.000520879C6.46418 0.000520879 5.43788 -0.00823506 4.40408 0.0460516C3.20329 0.100338 2.13759 0.356011 1.25951 1.17556C0.379557 1.99687 0.107503 2.98979 0.0493401 4.11055C-0.00882312 5.0772 0.000558074 6.0351 0.000558074 7C0.000558074 7.9649 -0.00882312 8.92455 0.0493401 9.88945C0.107503 11.0102 0.381433 12.0049 1.25951 12.8244C2.13946 13.6457 3.20329 13.8997 4.40408 13.9539C5.43976 14.0082 6.46606 13.9995 7.49986 13.9995C8.53554 13.9995 9.56184 14.0082 10.5956 13.9539C11.7964 13.8997 12.8621 13.644 13.7402 12.8244C14.6202 12.0031 14.8922 11.0102 14.9504 9.88945C15.0104 8.92455 14.9992 7.96665 14.9992 7ZM7.49798 10.5917C5.36846 10.5917 3.64983 8.98759 3.64983 7C3.64983 5.01241 5.36846 3.40832 7.49798 3.40832C9.62751 3.40832 11.3461 5.01241 11.3461 7C11.3461 8.98759 9.62751 10.5917 7.49798 10.5917ZM11.5037 4.10004C11.0065 4.10004 10.605 3.72529 10.605 3.26122C10.605 2.79716 11.0065 2.42241 11.5037 2.42241C12.0009 2.42241 12.4025 2.79716 12.4025 3.26122C12.4026 3.37142 12.3795 3.48056 12.3343 3.58239C12.2892 3.68422 12.223 3.77675 12.1396 3.85467C12.0561 3.93258 11.9569 3.99437 11.8478 4.03647C11.7387 4.07858 11.6218 4.10018 11.5037 4.10004Z" fill="white"/>
</svg>
