<svg width="48" height="48" viewBox="0 0 48 48" fill="none" xmlns="http://www.w3.org/2000/svg">
<g filter="url(#filter0_d_20_5320)">
<path d="M24 12C17.374 12 12 17.374 12 24C12 30.626 17.374 36 24 36C30.626 36 36 30.626 36 24C36 17.374 30.629 12 24 12Z" fill="white"/>
<path d="M24 12C17.374 12 12 17.374 12 24C12 30.626 17.374 36 24 36C30.626 36 36 30.626 36 24C36 17.374 30.629 12 24 12ZM17.92 24.403L17.971 24.322L21.094 19.438C21.1045 19.4219 21.119 19.409 21.1362 19.4005C21.1534 19.392 21.1725 19.3883 21.1916 19.3897C21.2107 19.3911 21.2291 19.3977 21.2448 19.4086C21.2606 19.4196 21.273 19.4346 21.281 19.452C21.801 20.621 22.253 22.075 22.041 22.98C21.953 23.352 21.706 23.856 21.427 24.322C21.3912 24.3902 21.3522 24.4566 21.31 24.521C21.2999 24.5354 21.2864 24.547 21.2707 24.5549C21.255 24.5627 21.2376 24.5665 21.22 24.566H18.013C17.9939 24.5663 17.975 24.5614 17.9584 24.5518C17.9418 24.5423 17.9281 24.5284 17.9188 24.5117C17.9095 24.495 17.9048 24.476 17.9054 24.4569C17.906 24.4378 17.9117 24.4191 17.922 24.403H17.92ZM31.834 26.083C31.8342 26.1044 31.8282 26.1253 31.8167 26.1433C31.8051 26.1612 31.7885 26.1754 31.769 26.184C31.526 26.287 30.699 26.669 30.355 27.146C29.477 28.368 28.807 30.116 27.307 30.116H21.053C20.525 30.1152 20.0023 30.0104 19.5148 29.8075C19.0273 29.6046 18.5845 29.3076 18.2118 28.9336C17.8392 28.5595 17.5438 28.1156 17.3428 27.6274C17.1417 27.1391 17.0388 26.616 17.04 26.088V26.016C17.04 25.958 17.088 25.91 17.148 25.91H20.633C20.703 25.91 20.753 25.973 20.748 26.042C20.722 26.268 20.765 26.501 20.873 26.712C21.079 27.132 21.509 27.394 21.972 27.394H23.698V26.047H21.99C21.97 26.0468 21.9504 26.0411 21.9334 26.0306C21.9163 26.0201 21.9025 26.0051 21.8934 25.9873C21.8842 25.9695 21.8801 25.9496 21.8814 25.9296C21.8828 25.9096 21.8895 25.8904 21.901 25.874L21.964 25.784C22.124 25.553 22.355 25.198 22.585 24.792C22.741 24.518 22.893 24.226 23.015 23.932C23.039 23.88 23.058 23.825 23.08 23.772C23.113 23.678 23.147 23.59 23.171 23.503C23.1946 23.4292 23.2162 23.3549 23.236 23.28C23.293 23.03 23.317 22.766 23.317 22.493C23.317 22.385 23.313 22.272 23.303 22.166C23.298 22.049 23.283 21.931 23.269 21.814C23.2578 21.7093 23.2418 21.6052 23.221 21.502C23.1941 21.3448 23.1614 21.1887 23.123 21.034L23.109 20.974C23.079 20.866 23.053 20.764 23.019 20.657C22.9238 20.3284 22.8143 20.0041 22.691 19.685C22.648 19.565 22.6007 19.4466 22.549 19.33C22.477 19.152 22.403 18.991 22.336 18.84C22.3027 18.7753 22.2713 18.7096 22.242 18.643C22.2095 18.5711 22.1751 18.5001 22.139 18.43C22.115 18.377 22.086 18.326 22.067 18.278L21.856 17.89C21.827 17.837 21.875 17.772 21.933 17.789L23.253 18.146H23.263L23.436 18.196L23.628 18.25L23.698 18.269V17.486C23.698 17.107 24 16.8 24.377 16.8C24.466 16.7998 24.5542 16.8175 24.6361 16.8522C24.7181 16.887 24.7922 16.9379 24.854 17.002C24.9817 17.1308 25.0535 17.3047 25.054 17.486V18.65L25.195 18.689C25.205 18.694 25.217 18.699 25.226 18.706C25.26 18.73 25.31 18.768 25.373 18.816C25.423 18.854 25.476 18.902 25.538 18.953C25.7355 19.1139 25.9269 19.282 26.112 19.457C26.326 19.656 26.566 19.889 26.796 20.148C26.861 20.222 26.923 20.294 26.988 20.374C27.05 20.453 27.12 20.53 27.178 20.606C27.257 20.71 27.338 20.818 27.413 20.93C27.446 20.983 27.487 21.038 27.518 21.091C27.614 21.233 27.696 21.379 27.775 21.526C27.809 21.593 27.842 21.667 27.871 21.739C27.96 21.936 28.03 22.135 28.073 22.337C28.0872 22.3799 28.0969 22.4241 28.102 22.469V22.479C28.116 22.536 28.121 22.599 28.126 22.663C28.1542 22.9586 28.118 23.2567 28.02 23.537C27.989 23.621 27.96 23.707 27.922 23.791C27.847 23.961 27.761 24.134 27.658 24.293C27.624 24.353 27.583 24.415 27.545 24.475C27.502 24.538 27.456 24.598 27.418 24.655C27.363 24.7307 27.3053 24.8044 27.245 24.876C27.192 24.948 27.139 25.02 27.079 25.085C26.998 25.183 26.919 25.275 26.834 25.363C26.786 25.421 26.734 25.481 26.678 25.533C26.626 25.593 26.57 25.646 26.522 25.694C26.438 25.778 26.372 25.841 26.314 25.896L26.177 26.018C26.1579 26.0371 26.132 26.0479 26.105 26.048H25.054V27.394H26.376C26.671 27.394 26.952 27.29 27.18 27.096C27.257 27.029 27.595 26.736 27.996 26.294C28.0091 26.279 28.0266 26.2684 28.046 26.264L31.696 25.207C31.712 25.2024 31.7289 25.2015 31.7453 25.2045C31.7617 25.2075 31.7772 25.2142 31.7906 25.2242C31.804 25.2342 31.8148 25.2471 31.8224 25.262C31.8299 25.2769 31.8339 25.2933 31.834 25.31V26.083Z" fill="#181C23"/>
</g>
<defs>
<filter id="filter0_d_20_5320" x="0" y="0" width="50" height="50" filterUnits="userSpaceOnUse" color-interpolation-filters="sRGB">
<feFlood flood-opacity="0" result="BackgroundImageFix"/>
<feColorMatrix in="SourceAlpha" type="matrix" values="0 0 0 0 0 0 0 0 0 0 0 0 0 0 0 0 0 0 127 0" result="hardAlpha"/>
<feOffset dx="2" dy="2"/>
<feComposite in2="hardAlpha" operator="out"/>
<feColorMatrix type="matrix" values="0 0 0 0 0.933333 0 0 0 0 0.545098 0 0 0 0 0.32549 0 0 0 1 0"/>
<feBlend mode="normal" in2="BackgroundImageFix" result="effect1_dropShadow_20_5320"/>
<feBlend mode="normal" in="SourceGraphic" in2="effect1_dropShadow_20_5320" result="shape"/>
</filter>
</defs>
</svg>
