<svg width="59" height="64" viewBox="0 0 59 64" fill="none" xmlns="http://www.w3.org/2000/svg">
<path d="M57.5959 55.0052C56.527 58.5724 53.445 60.9289 50.0483 62.1558C46.1687 63.5611 41.7084 63.9178 37.7094 62.8369C34.1934 61.8856 30.6556 59.8912 29.1363 56.5942C29.1091 56.5294 29.082 56.4699 29.0549 56.4051C29.0277 56.4699 29.0006 56.5348 28.9735 56.5942C27.4542 59.8912 23.9164 61.8856 20.4003 62.8369C16.3959 63.9178 11.9411 63.5611 8.06147 62.1558C4.66475 60.9235 1.58275 58.5724 0.513821 55.0052C-0.321791 52.2109 0.464988 47.7303 3.9865 47.2655C5.25619 47.0979 6.67782 47.6276 7.18787 48.8707C7.55142 49.7517 7.39949 50.7894 6.79177 51.4866L6.59101 51.3407C6.84603 50.6543 6.47706 49.622 5.70656 49.4544C4.58336 49.2166 3.78031 50.2651 3.8617 51.2921C4.01363 53.2324 6.298 54.0053 7.95294 54.0269C10.4218 54.0648 12.5597 52.8703 14.5727 51.5461C14.4208 50.9516 14.296 50.3138 14.2092 49.6274C14.0898 48.6815 14.0518 47.8005 14.0952 47.0006C8.68004 44.3414 5.21279 40.2716 5.21279 35.7099C5.21279 31.9643 6.298 27.408 9.38542 23.6192L9.36914 23.5489C9.26605 23.1219 6.92742 13.0311 11.1272 8.38288C15.7014 3.32393 21.046 2.47536 24.4753 2.05919C24.2691 1.92407 24.1389 1.75111 24.1172 1.55113C24.0412 0.956597 24.9148 0.351253 26.0705 0.205321C27.2263 0.0593902 28.2247 0.426921 28.3007 1.02146C28.3278 1.22684 28.2355 1.43763 28.0619 1.6214C29.3642 1.61059 31.3392 1.88083 33.4771 2.4105V2.4051C33.4825 2.4051 33.488 2.4105 33.4934 2.4105C37.1126 3.31312 41.1713 4.97781 43.1572 7.35055C46.5973 11.4582 47.0151 17.89 47.0585 18.9278C49.1421 20.0087 50.8242 20.6033 53.7 22.1058C58.5563 24.6353 58.3393 26.7864 57.699 28.0241C57.5145 28.4403 57.2704 28.743 57.0696 28.8457C56.7332 29.0943 56.2286 29.2294 55.6154 29.2348C54.3186 29.251 52.8319 28.716 51.7466 27.835C51.5296 27.662 50.9544 27.2188 50.2328 26.6675C52.0505 29.6997 52.9078 32.9264 52.9078 35.7099C52.9078 40.3526 49.3212 44.4819 43.7432 47.1357C43.7758 47.8654 43.7595 48.6545 43.6727 49.5031C43.6021 50.1895 43.5045 50.8273 43.3742 51.4218C45.4361 52.7946 47.6228 54.054 50.1677 54.0161C51.8226 53.9945 54.1016 53.2216 54.2589 51.2813C54.3403 50.2543 53.5372 49.2004 52.414 49.4436C51.6435 49.6058 51.2691 50.6381 51.5296 51.3299L51.3288 51.4758C50.7211 50.7786 50.5692 49.7463 50.9327 48.8599C51.4428 47.6168 52.8698 47.0925 54.1341 47.2546C57.6448 47.7303 58.4315 52.2109 57.5959 55.0052ZM24.1009 39.1474C27.4705 35.0937 25.4411 30.532 23.4498 28.1376C21.4584 25.7433 17.9477 26.0946 15.5983 28.9159C13.2488 31.7373 12.9612 35.9693 14.9471 38.3636C16.9439 40.758 21.1166 42.7416 24.1009 39.1474ZM43.4231 38.6015C45.0183 36.6233 44.785 33.1317 42.9022 30.7968C41.0193 28.4619 38.1924 28.1755 36.5971 30.1537C35.0018 32.1318 33.374 35.899 36.0762 39.25C38.4745 42.2173 41.8224 40.5796 43.4231 38.6015ZM44.8121 18.0143C44.7145 16.5604 44.4703 11.7177 41.6596 8.79365C37.8614 4.84269 29.3642 2.31862 22.7281 4.74541C21.3879 6.01555 20.8887 8.13425 20.7042 9.69626C20.536 11.161 21.2305 17.7171 21.4855 20.0087C23.9164 19.4304 26.2062 18.7332 29.0115 17.9495C37.4707 15.5822 44.4215 17.7981 44.8121 18.0143ZM11.5287 22.5058C14.9417 22.2139 16.4664 21.2248 19.3205 20.5654C19.0709 18.3332 18.3167 11.5826 18.4958 10.0584C18.6694 8.57205 19.136 6.59387 20.3298 5.26427C17.9911 5.91826 15.3378 7.1884 12.9558 9.88543C9.75439 13.5013 11.2954 21.4086 11.5287 22.5058ZM54.3891 24.0732C53.19 23.23 51.611 22.6355 49.5274 22.4193C48.4422 22.3058 47.7042 22.2842 47.3678 22.2788C43.4773 22.2518 41.5728 24.2407 34.3073 24.3975C29.9665 24.4894 27.6604 23.7111 25.083 22.8733C25.1156 23.2733 29.2502 25.8298 34.9476 25.673C41.3395 25.5001 43.8626 23.5381 47.2918 22.8679C47.7748 23.3597 48.2251 23.8624 48.6375 24.3813C49.777 25.1488 50.8134 25.8568 51.1172 26.0676C52.273 26.8891 53.6024 27.2837 54.4597 27.381C54.9372 27.435 55.3387 27.408 55.5883 27.2891C55.7891 27.2296 56.0875 26.8999 56.1472 26.4081C56.1309 25.7325 55.4798 24.8353 54.3891 24.0732ZM38.8164 8.71257C38.4474 8.3018 37.8234 8.17749 37.3296 8.41531C37.0637 8.54502 36.863 8.745 36.7436 8.98282C36.3909 9.67464 35.9243 10.307 35.284 10.7502L33.7213 11.8366L32.0012 11.015C31.2958 10.6799 30.737 10.1341 30.2757 9.50709C30.1184 9.29089 29.8905 9.12334 29.6029 9.04227C29.0712 8.88553 28.4797 9.11253 28.1813 9.57735C27.7635 10.2313 28.0239 11.0799 28.7022 11.3988C28.8921 11.4907 29.0929 11.5285 29.2882 11.5231C30.0967 11.4961 30.9052 11.5988 31.6377 11.9447L32.7826 12.4906L32.6415 12.5879C32.0012 13.0311 31.247 13.2473 30.4711 13.3391C30.2052 13.3716 29.9447 13.4851 29.7331 13.6905C29.337 14.0742 29.2394 14.7012 29.4998 15.1876C29.8634 15.8686 30.7315 16.0632 31.3501 15.6362C31.5237 15.5173 31.654 15.3606 31.7462 15.1876C32.126 14.4742 32.6089 13.8256 33.2709 13.3608L33.8135 12.9824L34.4104 13.2689C35.1429 13.6148 35.7235 14.1823 36.2118 14.8255C36.3312 14.9822 36.4886 15.1119 36.6731 15.2038C37.3513 15.5281 38.1761 15.1984 38.4257 14.4633C38.6047 13.9391 38.4094 13.3391 37.9536 13.0257C37.7094 12.8581 37.4327 12.7824 37.1668 12.7986C36.3855 12.8311 35.6096 12.7392 34.9042 12.4041L34.7468 12.3284L35.7886 11.6042C36.4506 11.1448 37.2319 10.9124 38.035 10.8097C38.2303 10.7826 38.4202 10.7124 38.5939 10.5935C39.2125 10.1665 39.3318 9.29089 38.8164 8.71257ZM31.9849 45.1143C31.3392 42.974 29.2448 41.4606 29.2448 41.4606C29.2448 41.4606 27.1558 42.974 26.5046 45.1143C26.0814 46.5088 26.3473 48.0492 27.0961 48.5572L27.1015 48.5626C27.8503 49.0707 28.7944 48.3518 29.2177 46.9628C29.2285 46.9304 29.2394 46.8925 29.2448 46.8601C29.2556 46.8925 29.2611 46.9304 29.2719 46.9628C29.6951 48.3572 30.6393 49.0707 31.3881 48.5626L31.3935 48.5572C32.1423 48.0438 32.4027 46.5034 31.9849 45.1143Z" fill="white"/>
</svg>
