<svg width="47" height="28" viewBox="0 0 47 28" fill="none" xmlns="http://www.w3.org/2000/svg">
<g filter="url(#filter0_d_30_136)">
<path fill-rule="evenodd" clip-rule="evenodd" d="M44.5714 24.1429C44.5714 23.6503 44.3757 23.1779 44.0275 22.8297C43.6792 22.4814 43.2068 22.2857 42.7143 22.2857H31.5714C31.0789 22.2857 30.6065 22.4814 30.2582 22.8297C29.9099 23.1779 29.7143 23.6503 29.7143 24.1429C29.7143 24.6354 29.9099 25.1078 30.2582 25.4561C30.6065 25.8043 31.0789 26 31.5714 26H42.7143C43.2068 26 43.6792 25.8043 44.0275 25.4561C44.3757 25.1078 44.5714 24.6354 44.5714 24.1429ZM44.5714 13C44.5714 12.5075 44.3757 12.0351 44.0275 11.6868C43.6792 11.3385 43.2068 11.1429 42.7143 11.1429H16.7143C16.2217 11.1429 15.7494 11.3385 15.4011 11.6868C15.0528 12.0351 14.8571 12.5075 14.8571 13C14.8571 13.4925 15.0528 13.9649 15.4011 14.3132C15.7494 14.6615 16.2217 14.8571 16.7143 14.8571H42.7143C43.2068 14.8571 43.6792 14.6615 44.0275 14.3132C44.3757 13.9649 44.5714 13.4925 44.5714 13ZM44.5714 1.85714C44.5714 1.3646 44.3757 0.892227 44.0275 0.543945C43.6792 0.195663 43.2068 0 42.7143 0H1.85713C1.36458 0 0.892208 0.195663 0.543926 0.543945C0.195644 0.892227 -1.52588e-05 1.3646 -1.52588e-05 1.85714C-1.52588e-05 2.34969 0.195644 2.82206 0.543926 3.17034C0.892208 3.51862 1.36458 3.71429 1.85713 3.71429H42.7143C43.2068 3.71429 43.6792 3.51862 44.0275 3.17034C44.3757 2.82206 44.5714 2.34969 44.5714 1.85714Z" fill="url(#paint0_linear_30_136)"/>
</g>
<defs>
<filter id="filter0_d_30_136" x="0" y="0" width="46.5714" height="28" filterUnits="userSpaceOnUse" color-interpolation-filters="sRGB">
<feFlood flood-opacity="0" result="BackgroundImageFix"/>
<feColorMatrix in="SourceAlpha" type="matrix" values="0 0 0 0 0 0 0 0 0 0 0 0 0 0 0 0 0 0 127 0" result="hardAlpha"/>
<feOffset dx="2" dy="2"/>
<feComposite in2="hardAlpha" operator="out"/>
<feColorMatrix type="matrix" values="0 0 0 0 0.933333 0 0 0 0 0.545098 0 0 0 0 0.32549 0 0 0 1 0"/>
<feBlend mode="normal" in2="BackgroundImageFix" result="effect1_dropShadow_30_136"/>
<feBlend mode="normal" in="SourceGraphic" in2="effect1_dropShadow_30_136" result="shape"/>
</filter>
<linearGradient id="paint0_linear_30_136" x1="-0.390595" y1="30.5967" x2="39.3437" y2="-4.04606" gradientUnits="userSpaceOnUse">
<stop stop-color="#D69599"/>
<stop offset="0.375504" stop-color="#F1AAEE"/>
<stop offset="1" stop-color="white"/>
</linearGradient>
</defs>
</svg>
