<svg width="24" height="29" viewBox="0 0 24 29" fill="none" xmlns="http://www.w3.org/2000/svg">
<path d="M23.9446 12.0551C23.7169 12.0758 23.4891 12.0896 23.2614 12.0896C20.7493 12.0896 18.4098 10.8267 17.0295 8.72176V20.1848C17.0295 24.8639 13.2338 28.6596 8.55476 28.6596C3.87569 28.6596 0.0799866 24.8639 0.0799866 20.1848C0.0799866 15.5057 3.87569 11.71 8.55476 11.71C8.7342 11.71 8.90672 11.7238 9.07925 11.7376V15.9129C8.90672 15.8922 8.7342 15.8577 8.55476 15.8577C6.16692 15.8577 4.22764 17.797 4.22764 20.1848C4.22764 22.5726 6.16692 24.5119 8.55476 24.5119C10.9426 24.5119 13.0544 22.6278 13.0544 20.24L13.0958 0.771484H17.0917C17.4712 4.35325 20.356 7.14827 23.9515 7.41742L23.9446 12.0551Z" fill="white"/>
</svg>
