<svg width="12" height="9" viewBox="0 0 12 9" fill="none" xmlns="http://www.w3.org/2000/svg">
<path d="M11.8215 1.09476C11.404 1.27976 10.9555 1.40476 10.484 1.46126C10.9705 1.17016 11.3345 0.711992 11.508 0.172259C11.0509 0.443754 10.5507 0.634857 10.029 0.737259C9.6782 0.362692 9.21354 0.114422 8.70717 0.0309962C8.2008 -0.0524299 7.68105 0.0336549 7.22862 0.275886C6.7762 0.518116 6.41639 0.90294 6.20508 1.37061C5.99377 1.83828 5.94277 2.36263 6.06001 2.86226C5.13385 2.81576 4.22782 2.57503 3.40072 2.15571C2.57362 1.73639 1.84393 1.14784 1.25901 0.428259C1.05901 0.773259 0.944006 1.17326 0.944006 1.59926C0.943783 1.98276 1.03822 2.36038 1.21895 2.69863C1.39967 3.03687 1.66109 3.32528 1.98001 3.53826C1.61014 3.52649 1.24844 3.42655 0.925006 3.24676V3.27676C0.924969 3.81463 1.11102 4.33595 1.4516 4.75226C1.79217 5.16857 2.26629 5.45422 2.79351 5.56076C2.4504 5.65362 2.09067 5.66729 1.74151 5.60076C1.89025 6.06357 2.18 6.46827 2.57019 6.75822C2.96038 7.04817 3.43146 7.20885 3.91751 7.21776C3.09242 7.86546 2.07345 8.2168 1.02451 8.21526C0.838696 8.21531 0.653044 8.20446 0.468506 8.18276C1.53324 8.86735 2.77268 9.23067 4.03851 9.22926C8.32351 9.22926 10.666 5.68026 10.666 2.60226C10.666 2.50226 10.6635 2.40126 10.659 2.30126C11.1147 1.97175 11.508 1.56371 11.8205 1.09626L11.8215 1.09476Z" fill="white"/>
</svg>
