<svg width="27" height="22" viewBox="0 0 27 22" fill="none" xmlns="http://www.w3.org/2000/svg">
<path d="M26.5838 2.67953C25.7418 3.0591 24.8101 3.29374 23.8992 3.44557C24.3339 3.36966 24.9689 2.58981 25.2173 2.27235C25.6038 1.78926 25.9281 1.23716 26.1076 0.643649C26.1283 0.59534 26.149 0.540132 26.1007 0.505625C26.0455 0.484921 26.0041 0.491823 25.9557 0.519428C24.9413 1.06463 23.8923 1.458 22.7674 1.74095C22.6776 1.76166 22.6086 1.74095 22.5465 1.68574C22.4568 1.58223 22.3671 1.48561 22.2705 1.40279C21.8012 1.00252 21.2974 0.69196 20.7246 0.457317C19.9792 0.15366 19.1649 0.0225335 18.3574 0.0777438C17.5776 0.126053 16.8046 0.346895 16.1145 0.712663C15.4175 1.07843 14.7964 1.58222 14.3064 2.18954C13.7957 2.81755 13.4161 3.56289 13.2229 4.35654C13.0365 5.11568 13.0503 5.87482 13.1677 6.64087C13.1815 6.77199 13.1746 6.78579 13.0573 6.77199C8.68184 6.12327 5.05867 4.55668 2.11182 1.20265C1.98069 1.05773 1.91168 1.05773 1.80816 1.21646C0.517619 3.14882 1.14563 6.24749 2.75363 7.77268C2.96757 7.97281 3.18841 8.17985 3.42306 8.36619C3.33334 8.38689 2.26364 8.26957 1.31127 7.77268C1.18014 7.68986 1.11802 7.73817 1.11112 7.8831C1.09732 8.09014 1.11803 8.28337 1.14563 8.51111C1.39408 10.4711 2.74674 12.2792 4.60318 12.9831C4.82402 13.0729 5.06556 13.1557 5.3071 13.1971C4.88613 13.2868 4.45134 13.3558 3.23672 13.2592C3.08489 13.2316 3.02968 13.3075 3.08489 13.4524C3.99586 15.9369 5.96272 16.6753 7.4396 17.0963C7.63974 17.1308 7.83297 17.1308 8.03311 17.1791C8.01931 17.1998 8.01241 17.1998 7.99861 17.2136C7.50862 17.959 5.8178 18.5111 5.02415 18.7871C3.58868 19.2909 2.029 19.5118 0.510714 19.3668C0.269169 19.3323 0.213956 19.3323 0.151845 19.3668C0.0828317 19.4082 0.144947 19.4635 0.220862 19.5256C0.531419 19.7257 0.841978 19.912 1.15944 20.0846C2.12562 20.5953 3.1263 21.0024 4.17529 21.2923C9.5997 22.7899 15.7073 21.6926 19.7791 17.6415C22.9744 14.4669 24.0993 10.0846 24.0993 5.69539C24.0993 5.52286 24.2994 5.42624 24.4237 5.33652C25.2587 4.70851 25.9281 3.96317 26.5493 3.12811C26.6873 2.94178 26.6873 2.77615 26.6873 2.70713C26.6873 2.69333 26.6873 2.68643 26.6873 2.68643C26.6942 2.61052 26.6942 2.63122 26.5838 2.67953Z" fill="white"/>
</svg>
