<svg width="9" height="7" viewBox="0 0 9 7" fill="none" xmlns="http://www.w3.org/2000/svg">
<g clip-path="url(#clip0_20_5396)">
<path fill-rule="evenodd" clip-rule="evenodd" d="M0.500641 0.5H11.9006V0.961719H0.500641V0.5ZM0.500641 1.42344H11.9006V1.88516H0.500641V1.42344ZM0.500641 2.3457H11.9006V2.80859H0.500641V2.3457ZM0.500641 3.26914H11.9006V3.73086H0.500641V3.26914ZM0.500641 4.19258H11.9006V4.6543H0.500641V4.19258ZM0.500641 5.11484H11.9006V5.57656H0.500641V5.11484ZM0.500641 6.03828H11.9006V6.5H0.500641V6.03828Z" fill="#BD3D44"/>
<path fill-rule="evenodd" clip-rule="evenodd" d="M0.500641 0.961914H11.9006V1.42363H0.500641V0.961914ZM0.500641 1.88535H11.9006V2.3459H0.500641V1.88535ZM0.500641 2.80762H11.9006V3.26934H0.500641V2.80762ZM0.500641 3.73105H11.9006V4.19277H0.500641V3.73105ZM0.500641 4.65449H11.9006V5.11621H0.500641V4.65449ZM0.500641 5.57676H11.9006V6.03848H0.500641V5.57676Z" fill="white"/>
<path fill-rule="evenodd" clip-rule="evenodd" d="M0.500641 0.5H5.06041V3.73086H0.500641V0.5Z" fill="#192F5D"/>
<path fill-rule="evenodd" clip-rule="evenodd" d="M0.880325 0.638672L0.922513 0.766406H1.05611L0.948294 0.844922L0.98931 0.973828L0.880325 0.894141L0.772513 0.972656L0.813528 0.844922L0.704544 0.766406H0.840482L0.880325 0.638672ZM1.64087 0.638672L1.68189 0.766406H1.81665L1.70767 0.844922L1.74868 0.973828L1.64087 0.894141L1.53189 0.972656L1.5729 0.844922L1.46509 0.766406H1.59868L1.64087 0.638672ZM2.40025 0.638672L2.44243 0.766406H2.57486L2.46704 0.844922L2.50806 0.973828L2.39908 0.894141L2.29126 0.972656L2.33228 0.844922L2.22329 0.766406H2.35806L2.40025 0.638672ZM3.16079 0.638672L3.20181 0.766406H3.33658L3.22759 0.844922L3.26978 0.973828L3.16079 0.894141L3.05181 0.972656L3.094 0.844922L2.98501 0.766406H3.11861L3.16079 0.638672ZM3.92017 0.638672L3.96236 0.766406H4.09595L3.98814 0.844922L4.02915 0.973828L3.92017 0.894141L3.81236 0.972656L3.85337 0.844922L3.74556 0.766406H3.87915L3.92017 0.638672ZM4.68072 0.638672L4.72173 0.766406H4.8565L4.74751 0.844922L4.7897 0.973828L4.68072 0.894141L4.57173 0.972656L4.61392 0.844922L4.50493 0.766406H4.6397L4.68072 0.638672ZM1.26118 0.962109L1.3022 1.08984H1.43697L1.32798 1.16836L1.36783 1.29609L1.26236 1.21758L1.15337 1.29609L1.19204 1.16836L1.08658 1.08984H1.22017L1.26118 0.962109ZM2.02056 0.962109L2.06275 1.08984H2.19634L2.08736 1.16836L2.12954 1.29609L2.02056 1.21758L1.91158 1.29609L1.95376 1.16836L1.84478 1.08984H1.97954L2.02056 0.962109ZM2.78111 0.962109L2.82212 1.08984H2.95689L2.8479 1.16836L2.88892 1.29609L2.78111 1.21758L2.67212 1.29609L2.71314 1.16836L2.60533 1.08984H2.73892L2.78111 0.962109ZM3.54048 0.962109L3.58267 1.08984H3.71626L3.60728 1.16836L3.64947 1.29609L3.54048 1.21758L3.43267 1.29609L3.47368 1.16836L3.3647 1.08984H3.50064L3.54048 0.962109ZM4.30103 0.962109L4.34204 1.08984H4.47681L4.36782 1.16836L4.40884 1.29609L4.30103 1.21758L4.19204 1.29609L4.23306 1.16836L4.12525 1.08984H4.25884L4.30103 0.962109ZM0.880325 1.28437L0.922513 1.41445H1.05611L0.948294 1.49297L0.98931 1.6207L0.880325 1.54102L0.772513 1.6207L0.813528 1.4918L0.704544 1.41328H0.840482L0.880325 1.28437ZM1.64087 1.28437L1.68189 1.41328H1.81665L1.70767 1.4918L1.74868 1.61953L1.64087 1.53984L1.53189 1.61953L1.5729 1.49062L1.46509 1.41211H1.59868L1.64087 1.28437ZM2.40025 1.28437L2.44243 1.41328H2.57486L2.46704 1.4918L2.50806 1.61953L2.39908 1.53984L2.29126 1.61953L2.33228 1.49062L2.22329 1.41211H2.35806L2.40025 1.28437ZM3.16079 1.28437L3.20181 1.41328H3.33658L3.22759 1.4918L3.26978 1.61953L3.16079 1.53984L3.05181 1.61953L3.094 1.49062L2.98501 1.41211H3.11861L3.16079 1.28437ZM3.92017 1.28437L3.96236 1.41328H4.09595L3.98814 1.4918L4.02915 1.61953L3.92017 1.53984L3.81236 1.61953L3.85337 1.49062L3.74556 1.41211H3.87915L3.92017 1.28437ZM4.68072 1.28437L4.72173 1.41328H4.8565L4.74751 1.4918L4.7897 1.61953L4.68072 1.53984L4.57173 1.61953L4.61392 1.49062L4.50493 1.41211H4.6397L4.68072 1.28437ZM1.26118 1.60781L1.3022 1.73555H1.43697L1.32798 1.81406L1.369 1.94297L1.26118 1.86328L1.1522 1.9418L1.19322 1.81406L1.0854 1.73555H1.219L1.26118 1.60781ZM2.02056 1.60781L2.06275 1.73555H2.19634L2.08736 1.81406L2.12954 1.94297L2.02056 1.86328L1.91158 1.9418L1.95376 1.81406L1.84478 1.73555H1.97954L2.02056 1.60781ZM2.78111 1.60781L2.82212 1.73555H2.95689L2.8479 1.81406L2.88892 1.94297L2.78111 1.86328L2.67212 1.9418L2.71314 1.81406L2.60533 1.73555H2.73892L2.78111 1.60781ZM3.54048 1.60781L3.58267 1.73555H3.71626L3.60845 1.81406L3.64947 1.94297L3.54048 1.86328L3.43267 1.9418L3.47368 1.81406L3.3647 1.73555H3.50064L3.54048 1.60781ZM4.30103 1.60781L4.34204 1.73555H4.47681L4.36782 1.81406L4.40884 1.94297L4.30103 1.86328L4.19204 1.9418L4.23306 1.81406L4.12525 1.73555H4.25884L4.30103 1.60781ZM0.880325 1.93125L0.922513 2.05898H1.05611L0.948294 2.1375L0.98931 2.26641L0.880325 2.18672L0.772513 2.26523L0.813528 2.1375L0.704544 2.05898H0.840482L0.880325 1.93125ZM1.64087 1.93125L1.68189 2.05898H1.81665L1.70767 2.1375L1.74868 2.26523L1.64087 2.18672L1.53189 2.26523L1.5729 2.1375L1.46509 2.05898H1.59868L1.64087 1.93125ZM2.40025 1.93125L2.44243 2.05898H2.57486L2.46704 2.1375L2.50806 2.26641L2.39908 2.18672L2.29126 2.26523L2.33228 2.1375L2.22329 2.05898H2.35806L2.40025 1.93125ZM3.16079 1.93125L3.20181 2.05898H3.33658L3.22759 2.1375L3.26978 2.26641L3.16079 2.18672L3.05181 2.26523L3.094 2.1375L2.98501 2.05898H3.11861L3.16079 1.93125ZM3.92017 1.93125L3.96236 2.05898H4.09595L3.98814 2.1375L4.02915 2.26641L3.92017 2.18672L3.81236 2.26523L3.85337 2.1375L3.74556 2.05898H3.87915L3.92017 1.93125ZM4.68072 1.93125L4.72173 2.05898H4.8565L4.74751 2.1375L4.7897 2.26641L4.68072 2.18672L4.57173 2.26523L4.61392 2.1375L4.50493 2.05898H4.6397L4.68072 1.93125ZM1.26118 2.25469L1.3022 2.38242H1.43697L1.32798 2.46094L1.369 2.58867L1.26118 2.50898L1.1522 2.58867L1.19322 2.45976L1.0854 2.38125H1.219L1.26118 2.25469ZM2.02056 2.25469L2.06275 2.38242H2.19634L2.08736 2.46094L2.12954 2.58867L2.02056 2.50898L1.91158 2.58867L1.95376 2.45976L1.84478 2.38125H1.97954L2.02056 2.25469ZM2.78111 2.25469L2.82212 2.38242H2.95689L2.8479 2.46094L2.88892 2.58867L2.78111 2.50898L2.67212 2.58867L2.71314 2.45976L2.60533 2.38125H2.73892L2.78111 2.25469ZM3.54048 2.25469L3.58267 2.38242H3.71626L3.60845 2.46094L3.64947 2.58867L3.54048 2.50898L3.43267 2.58867L3.47368 2.45976L3.3647 2.38125H3.50064L3.54048 2.25469ZM4.30103 2.25469L4.34204 2.38242H4.47681L4.36782 2.46094L4.40884 2.58867L4.30103 2.50898L4.19204 2.58867L4.23306 2.45976L4.12525 2.38125H4.25884L4.30103 2.25469ZM0.880325 2.57695L0.922513 2.70586H1.05611L0.948294 2.78437L0.98931 2.91094L0.880325 2.83242L0.772513 2.91094L0.813528 2.7832L0.704544 2.70469H0.840482L0.880325 2.57695ZM1.64087 2.57695L1.68189 2.70586H1.81665L1.70767 2.78437L1.74986 2.91094L1.64087 2.83242L1.53189 2.91094L1.57408 2.7832L1.46509 2.70469H1.59868L1.64087 2.57695ZM2.40025 2.57695L2.44243 2.70586H2.57486L2.46704 2.78437L2.50806 2.91094L2.39908 2.83242L2.29126 2.91094L2.33228 2.7832L2.22329 2.70469H2.35806L2.40025 2.57695ZM3.16079 2.57695L3.20181 2.70586H3.33658L3.22759 2.78437L3.26978 2.91094L3.16079 2.83242L3.05181 2.91094L3.094 2.7832L2.98501 2.70469H3.11861L3.16079 2.57695ZM3.92017 2.57695L3.96236 2.70586H4.09595L3.98814 2.78437L4.02915 2.91094L3.92017 2.83242L3.81236 2.91094L3.85337 2.7832L3.74556 2.70469H3.87915L3.92017 2.57695ZM4.68072 2.57695L4.72173 2.70586H4.8565L4.74751 2.78437L4.7897 2.91094L4.68072 2.83242L4.57173 2.91094L4.61392 2.7832L4.50493 2.70469H4.6397L4.68072 2.57695ZM1.26118 2.90039L1.3022 3.02812H1.43697L1.32798 3.10664L1.369 3.23555L1.26118 3.15586L1.1522 3.23437L1.19322 3.10664L1.0854 3.02812H1.219L1.26118 2.90039ZM2.02056 2.90039L2.06275 3.02812H2.19634L2.08736 3.10664L2.12954 3.23555L2.02056 3.15586L1.91158 3.23437L1.95376 3.10664L1.84478 3.02812H1.97954L2.02056 2.90039ZM2.78111 2.90039L2.82212 3.02812H2.95689L2.8479 3.10664L2.88892 3.23555L2.78111 3.15586L2.67212 3.23437L2.71314 3.10664L2.60533 3.02812H2.73892L2.78111 2.90039ZM3.54048 2.90039L3.58267 3.02812H3.71626L3.60845 3.10664L3.64947 3.23555L3.54048 3.15586L3.43267 3.23437L3.47368 3.10664L3.3647 3.02812H3.50064L3.54048 2.90039ZM4.30103 2.90039L4.34204 3.02812H4.47681L4.36782 3.10664L4.40884 3.23555L4.30103 3.15586L4.19204 3.23437L4.23306 3.10664L4.12525 3.02812H4.25884L4.30103 2.90039ZM0.880325 3.22383L0.922513 3.35156H1.05611L0.948294 3.43008L0.98931 3.55781L0.880325 3.4793L0.772513 3.55781L0.813528 3.42891L0.704544 3.35039H0.840482L0.880325 3.22383ZM1.64087 3.22383L1.68189 3.35156H1.81665L1.70767 3.43008L1.74986 3.55781L1.64087 3.4793L1.53189 3.55781L1.57408 3.42891L1.46509 3.35039H1.59868L1.64087 3.22383ZM2.40025 3.22383L2.44243 3.35156H2.57486L2.46939 3.43008L2.5104 3.55781L2.40142 3.4793L2.29361 3.55781L2.33462 3.42891L2.22564 3.35039H2.3604L2.40025 3.22383ZM3.16079 3.22383L3.20181 3.35156H3.33658L3.22759 3.43008L3.26978 3.55781L3.16079 3.4793L3.05181 3.55781L3.094 3.42891L2.98501 3.35039H3.11861L3.16079 3.22383ZM3.92017 3.22383L3.96236 3.35156H4.09595L3.98814 3.43008L4.02915 3.55781L3.92017 3.4793L3.81236 3.55781L3.85337 3.42891L3.74556 3.35039H3.87915L3.92017 3.22383ZM4.68072 3.22383L4.72173 3.35156H4.8565L4.74751 3.43008L4.7897 3.55781L4.68072 3.4793L4.57173 3.55781L4.61392 3.42891L4.50493 3.35039H4.6397L4.68072 3.22383Z" fill="white"/>
</g>
<defs>
<clipPath id="clip0_20_5396">
<rect width="8" height="6" fill="white" transform="translate(0.500641 0.5)"/>
</clipPath>
</defs>
</svg>
